<?xml version="1.0" encoding="UTF-8" standalone="no"?>
<!-- Created with Inkscape (http://www.inkscape.org/) -->

<svg
   width="126mm"
   height="76mm"
   viewBox="0 0 126 76"
   version="1.1"
   id="svg1"
   xml:space="preserve"
   inkscape:version="1.3.2 (091e20e, 2023-11-25, custom)"
   sodipodi:docname="demotodos_architecture.svg"
   inkscape:export-filename="demotodos_architecture.png"
   inkscape:export-xdpi="96"
   inkscape:export-ydpi="96"
   xmlns:inkscape="http://www.inkscape.org/namespaces/inkscape"
   xmlns:sodipodi="http://sodipodi.sourceforge.net/DTD/sodipodi-0.dtd"
   xmlns="http://www.w3.org/2000/svg"
   xmlns:svg="http://www.w3.org/2000/svg"><sodipodi:namedview
     id="namedview1"
     pagecolor="#ffffff"
     bordercolor="#666666"
     borderopacity="1.0"
     inkscape:showpageshadow="2"
     inkscape:pageopacity="0.0"
     inkscape:pagecheckerboard="0"
     inkscape:deskcolor="#d1d1d1"
     inkscape:document-units="mm"
     inkscape:zoom="1.9628562"
     inkscape:cx="242.24902"
     inkscape:cy="195.88801"
     inkscape:window-width="1920"
     inkscape:window-height="1017"
     inkscape:window-x="-8"
     inkscape:window-y="-8"
     inkscape:window-maximized="1"
     inkscape:current-layer="layer1"
     inkscape:export-bgcolor="#ffffffff" /><defs
     id="defs1"><marker
       style="overflow:visible"
       id="marker14"
       refX="0"
       refY="0"
       orient="auto-start-reverse"
       inkscape:stockid="Stylized triangle arrow"
       markerWidth="1"
       markerHeight="1"
       viewBox="0 0 1 1"
       inkscape:isstock="true"
       inkscape:collect="always"
       preserveAspectRatio="xMidYMid"><path
         transform="scale(0.5)"
         style="fill:context-stroke;fill-rule:evenodd;stroke:context-stroke;stroke-width:1pt"
         d="m 6,0 c -3,1 -7,3 -9,5 0,0 0,-4 2,-5 -2,-1 -2,-5 -2,-5 2,2 6,4 9,5 z"
         id="path14" /></marker><marker
       style="overflow:visible"
       id="ArrowTriangleStylized"
       refX="0"
       refY="0"
       orient="auto-start-reverse"
       inkscape:stockid="Stylized triangle arrow"
       markerWidth="1"
       markerHeight="1"
       viewBox="0 0 1 1"
       inkscape:isstock="true"
       inkscape:collect="always"
       preserveAspectRatio="xMidYMid"><path
         transform="scale(0.5)"
         style="fill:context-stroke;fill-rule:evenodd;stroke:context-stroke;stroke-width:1pt"
         d="m 6,0 c -3,1 -7,3 -9,5 0,0 0,-4 2,-5 -2,-1 -2,-5 -2,-5 2,2 6,4 9,5 z"
         id="path12" /></marker></defs><g
     inkscape:label="Layer 1"
     inkscape:groupmode="layer"
     id="layer1"><rect
       style="fill:#f8f8f8;fill-opacity:1;stroke:none;stroke-width:0.529;stroke-linecap:round;stroke-linejoin:round;stroke-dasharray:1.058, 2.116;stroke-dashoffset:0;stroke-opacity:1"
       id="rect2"
       width="126"
       height="76"
       x="0"
       y="0" /><path
       d="m 9.4492344,43.619308 v 0.45454 7.272743 0.45454 h 0.454547 5.4545486 v 0.909098 h -2.272729 v 0.90908 h 5.454549 v -0.90908 h -2.27273 v -0.909098 h 5.454549 0.454547 v -0.45454 -7.272743 -0.45454 H 21.721969 9.9037814 Z m 0.9090916,0.909098 h 10.909098 v 6.363629 H 10.358326 Z"
       id="path1"
       style="fill:#ff6969;fill-opacity:1;stroke-width:0.264583" /><rect
       style="fill:none;fill-opacity:1;stroke:#707070;stroke-width:0.229;stroke-linecap:round;stroke-linejoin:round;stroke-dasharray:0.458,0.916;stroke-dashoffset:0;stroke-opacity:1"
       id="rect1"
       width="68.245163"
       height="57.951275"
       x="41.175827"
       y="11.628456"
       rx="2.6959014"
       ry="2.6959016" /><path
       d="m 64.34561,44.13927 c -0.140157,0.337254 -0.319421,0.655111 -0.534351,0.948254 -0.941685,-0.940121 -2.217807,-1.468215 -3.548994,-1.468215 -2.753723,0 -5.018771,2.265049 -5.018771,5.018777 0,1.373727 0.563759,2.688651 1.559254,3.63533 l 0.184271,0.164571 c 0.906019,0.762729 2.049806,1.179761 3.232699,1.181322 2.618572,0 4.818234,-2.049807 5.005631,-4.66024 0.13703,-1.279254 -0.239643,-2.895447 -0.880051,-4.818235 z m -6.83081,8.163565 c -0.07978,0.101098 -0.203667,0.157985 -0.332562,0.157985 -0.237768,0 -0.428608,-0.192405 -0.430172,-0.428608 0,-0.236203 0.195533,-0.430169 0.430172,-0.430169 0.360092,0.0012 0.560631,0.420473 0.332562,0.700792 z m 6.8111,-1.502316 c -1.238267,1.649032 -3.884683,1.093407 -5.579089,1.173186 0,0 -0.30159,0.01785 -0.60443,0.06693 0,0 0.114187,-0.04718 0.260606,-0.104173 1.191026,-0.41391 1.753222,-0.493677 2.476849,-0.865351 1.362157,-0.692658 2.709611,-2.207791 2.989926,-3.783631 -0.519647,1.517014 -2.092353,2.818801 -3.524591,3.34846 -0.980791,0.361647 -2.753722,0.71361 -2.753722,0.71361 l -0.07164,-0.0376 c -1.207296,-0.586593 -1.243274,-3.200164 0.949819,-4.044239 0.95983,-0.368226 1.88024,-0.166124 2.916719,-0.412339 1.108122,-0.264046 2.390503,-1.094981 2.911713,-2.178701 0.583469,1.733826 1.285509,4.446879 0.02785,6.123451 z"
       id="path1-4"
       style="fill:#2ad054;fill-opacity:1;stroke-width:0.264584" /><g
       style="fill:#9c2ad0;fill-opacity:1;stroke-width:0.529166"
       id="g1"
       transform="matrix(0.5,0,0,0.5,54.248691,19.536537)"><path
         d="m 18.25,7 a 1.25,1.25 0 1 1 -2.5,0 1.25,1.25 0 0 1 2.5,0 z"
         fill="#212121"
         id="path1-45"
         style="fill:#9c2ad0;fill-opacity:1;stroke-width:0.529166" /><path
         d="M 15.5,2.05 A 6.554,6.554 0 0 0 8.95,8.6 C 8.95,8.987 9,9.36 9.06,9.704 A 0.275,0.275 0 0 1 8.99,9.948 L 2.755,16.184 A 2.75,2.75 0 0 0 1.949,18.128 V 20.3 c 0,0.966 0.784,1.75 1.75,1.75 h 2.5 A 1.75,1.75 0 0 0 7.949,20.3 V 19.05 H 9.7 c 0.69,0 1.25,-0.56 1.25,-1.25 v -1.75 h 1.75 a 1.25,1.25 0 0 0 1.25,-1.204 c 0.496,0.128 1.02,0.204 1.55,0.204 A 6.554,6.554 0 0 0 22.05,8.5 C 22.05,4.869 19.097,2.05 15.5,2.05 Z M 10.45,8.6 A 5.054,5.054 0 0 1 15.5,3.55 c 2.802,0 5.05,2.181 5.05,4.95 a 5.054,5.054 0 0 1 -5.05,5.05 c -0.68,0 -1.38,-0.171 -2.005,-0.44 a 0.75,0.75 0 0 0 -1.046,0.69 v 0.75 H 10.7 c -0.69,0 -1.25,0.56 -1.25,1.25 v 1.75 H 7.7 c -0.69,0 -1.25,0.56 -1.25,1.25 v 1.5 A 0.25,0.25 0 0 1 6.2,20.55 H 3.7 A 0.25,0.25 0 0 1 3.45,20.3 v -2.172 c 0,-0.331 0.132,-0.65 0.366,-0.884 l 6.236,-6.235 A 1.774,1.774 0 0 0 10.538,9.445 4.917,4.917 0 0 1 10.45,8.6 Z"
         fill="#212121"
         id="path2"
         style="fill:#9c2ad0;fill-opacity:1;stroke-width:0.529166" /></g><path
       d="m 92.162773,43.622914 c -0.002,0.0022 -0.20026,0.203897 -0.31332,0.325962 -0.2911,0.319371 -0.73615,0.78306 -1.0495,0.899125 h -0.002 c -0.0439,-0.01364 -0.0848,-0.02818 -0.12865,-0.04092 l 0.56413,-1.140301 -0.006,0.0091 c -0.0182,0.03432 -0.57616,1.133686 -1.33456,0.974297 l -0.002,0.0022 c -0.0136,-0.0022 -0.0227,0 -0.0314,-0.0022 0.36324,-0.463689 0.50458,-0.89251 0.50458,-0.89251 0,0 -0.60442,0.974296 -1.3562,0.710889 -0.0159,-0.0068 -0.0314,-0.01819 -0.038,-0.03797 -0.006,-0.02273 -0.006,-0.04387 0,-0.06252 0.007,-0.03432 0.0314,-0.07524 0.0537,-0.112968 0.0753,-0.140705 0.20686,-0.297708 0.20686,-0.297708 0,0 -0.12502,0.122069 -0.29471,0.238176 l -0.002,0.0022 c -0.12503,0.08478 -0.27545,0.165936 -0.4168,0.188212 -0.0439,0.0068 -0.0878,0.0068 -0.1316,0 -0.17208,-0.03137 -0.16891,-0.200259 -0.12201,-0.366265 0.05,-0.162981 0.1407,-0.319347 0.1407,-0.319347 0,0 -0.15344,0.238153 -0.31935,0.46969 -0.12865,0.178666 -0.25078,0.316371 -0.33198,0.378903 l -0.0968,0.0022 c -0.05,-0.140705 0.0782,-0.604418 0.0782,-0.607441 -0.0753,0.122069 -0.16003,0.241176 -0.2508,0.357263 -0.0782,0.103421 -0.16889,0.19435 -0.27244,0.269431 h -0.0227 c -0.0655,0.0068 -0.12865,0.01591 -0.19115,0.02523 -0.0281,-0.02523 -0.0469,-0.06252 -0.05,-0.10047 -0.0343,-0.215944 0.0968,-0.60744 0.10043,-0.611055 -0.002,0.0022 -0.0753,0.206853 -0.16889,0.401157 v 0.0022 c -0.0253,0.0566 -0.0567,0.09684 -0.0878,0.144343 -0.0691,0.109335 -0.14071,0.19435 -0.20686,0.175483 -0.1034,-0.03137 -0.16298,-0.162981 -0.1973,-0.28507 -0.0379,-0.122069 -0.0469,-0.241176 -0.0469,-0.241176 0,0 -0.0252,0.203898 -0.0939,0.391542 -0.0252,0.07524 -0.0655,0.147297 -0.11618,0.209807 -0.0182,0.02273 -0.0469,0.03137 -0.0691,0.04387 -0.72051,0.128658 -1.42537,0.33501 -2.09895,0.614078 -0.17867,0.06547 -0.35727,0.128658 -0.54189,0.206853 -0.60143,0.256791 -1.22451,0.579777 -1.87645,0.998958 -0.72352,0.466714 -1.40975,0.989936 -2.05508,1.560097 -0.35724,0.316347 -0.72651,0.657949 -1.10241,1.033852 2.85377,-1.534842 3.98445,-3.802805 9.32811,-4.003088 4.04398,-0.153435 5.93305,1.713463 6.55913,1.738716 1.5661,0.06547 2.60957,-1.121661 2.94458,-1.560096 0.0878,-0.112968 0.1407,-0.191169 0.14434,-0.197306 -0.006,0.0091 -0.26343,0.30071 -0.62308,0.579777 l -0.007,0.0022 c -0.36988,0.28207 -0.8426,0.544885 -1.26239,0.482353 h -0.002 c -0.0537,-0.0091 -0.10936,-0.0068 -0.16299,-0.02818 0.59542,-0.347625 0.98996,-0.952041 1.18723,-1.278027 0.0625,-0.10047 0.1882,-0.28807 0.1882,-0.28807 0,0 -1.40011,1.434394 -2.44357,1.337561 -0.0439,-0.0022 -0.0848,0.0068 -0.12502,-0.0022 0.45405,-0.357263 0.78965,-0.836591 1.02421,-1.240748 v -0.0022 h 0.002 c 0.25379,-0.438436 0.38551,-0.789675 0.38551,-0.795677 -0.002,0.0068 -0.25981,0.397543 -0.61405,0.829954 l -0.006,0.0091 c -0.35422,0.432434 -0.80167,0.899148 -1.17458,1.042876 -0.0565,0.01819 -0.11295,0.05 -0.16297,0.0566 0.86786,-0.770421 1.23413,-1.860805 1.23413,-1.860805 0,0 -0.88048,1.278028 -1.62566,1.513181 -0.0439,0.01364 -0.0906,0.03795 -0.13774,0.04387 0.45707,-0.410181 0.69824,-0.739168 0.84861,-0.99596 0.19117,-0.32237 0.22549,-0.520244 0.22549,-0.520244 l -0.002,0.0022 c -0.0723,0.0907 -0.14434,0.178666 -0.21958,0.26643 l -0.0136,0.01364 c -0.2039,0.241176 -0.51663,0.588801 -0.83659,0.864846 l -0.002,0.0022 c -0.0848,0.07229 -0.16911,0.137749 -0.25678,0.200259 -0.0253,0.01591 -0.05,0.03797 -0.0723,0.05365 -0.0691,0.04092 -0.14434,0.07819 -0.21958,0.109335 -0.0182,0.0068 -0.0343,0.01819 -0.0537,0.02523 -0.0537,-0.03797 -0.10341,-0.07524 -0.16299,-0.109335 -0.0379,0.04683 -0.0782,0.09389 -0.11296,0.140705 h -0.002 c -0.0159,-0.0022 -0.0343,-0.0022 -0.05,-0.01364 0.6892,-0.748758 1.15591,-1.697801 1.15591,-1.697801 l -0.006,0.0022 c -0.007,0.0068 -0.95564,1.290666 -1.38447,1.368839 -0.0567,-0.02818 -0.11295,-0.0566 -0.17207,-0.08115 0.002,-0.04387 0.0159,-0.08774 0.0343,-0.13184 0.0968,-0.225492 0.37288,-0.573162 0.37288,-0.573162 0,0 -0.0753,0.0566 -0.10043,0.07524 -0.0782,0.0691 -0.16002,0.131612 -0.24115,0.191168 -0.0469,0.03432 -0.0939,0.05955 -0.13776,0.08774 -0.0537,0.03137 -0.1034,0.06252 -0.15342,0.08478 -0.0625,0.03795 -0.1348,0.05955 -0.20981,0.0691 -0.0343,0 -0.0655,-0.0022 -0.0878,-0.02273 0.36324,-0.222536 0.98332,-1.306305 0.98993,-1.312329 z m -3.8437,1.735103 c -0.24418,-0.0022 -0.48894,-0.0022 -0.73012,0.0068 -0.23156,0.0091 -0.44145,0.02523 -0.65797,0.04387 -0.2255,0.10047 -0.43844,0.215944 -0.6297,0.369856 0.0182,0.04092 0.0282,0.08774 0.0282,0.134795 0,0.05365 -0.0136,0.103421 -0.0379,0.150479 l 0.71089,0.516608 0.0182,-0.01364 -0.29107,-1.015189 0.50098,0.896124 c 0.0159,-0.0068 0.0343,-0.01364 0.05,-0.01819 l -0.0159,-0.989958 0.31937,0.933426 0.3789,-0.923788 0.0159,1.01819 c 0.002,0.0022 0.006,0.0068 0.009,0.0068 l 0.57014,-0.805291 -0.2911,0.97732 0.006,0.0068 0.8366,-0.554524 -0.60745,0.842593 v 0.0068 l 0.76141,-0.272477 c 0.009,-0.01591 0.0253,-0.02523 0.0343,-0.04092 -0.1882,-0.231561 0.0253,-0.570161 0.31635,-0.504606 0.0939,-0.197305 0.16911,-0.404158 0.21594,-0.617055 -0.50098,-0.08775 -1.00557,-0.13775 -1.50956,-0.153435 z m -2.00756,0.109558 h -0.0182 c -0.24417,0.02818 -0.48535,0.06252 -0.71447,0.10047 -0.22915,0.03795 -0.45108,0.08115 -0.66097,0.128657 h -0.009 c 0.0909,0.313348 0.23515,0.607441 0.42278,0.86787 0.0878,-0.191168 0.19731,-0.369879 0.32236,-0.53227 -0.10341,-0.282068 0.1757,-0.557523 0.4571,-0.445049 0.0625,-0.04683 0.13479,-0.07819 0.20026,-0.119106 z m 3.57426,0.07229 c -0.0136,0.225491 -0.0565,0.44805 -0.12865,0.663972 0.23157,0.209808 0.0439,0.591802 -0.26343,0.544886 -0.12502,0.184575 -0.27243,0.35724 -0.44143,0.504583 l 0.52924,0.02818 -0.79567,0.188213 c -0.0227,0.01591 -0.038,0.03432 -0.0595,0.04682 0.45407,0.07229 0.88048,0.26343 1.23411,0.554523 0.25682,-0.460689 0.40416,-0.989958 0.40416,-1.557096 0,-0.429412 -0.19117,-0.742168 -0.47633,-0.974296 z m -5.06519,0.181621 c -0.23815,0.0566 -0.4667,0.119105 -0.68261,0.184575 -0.10961,0.181621 -0.16912,0.39452 -0.16912,0.607441 0,1.303282 0.77704,2.418306 1.88906,2.919297 l 0.002,-0.0091 c -0.1882,-0.184575 -0.34459,-0.397542 -0.46669,-0.632695 -0.5136,0.07229 -0.73313,-0.632694 -0.26943,-0.864846 -0.0439,-0.375902 -0.006,-0.754783 0.11296,-1.115046 -0.22254,-0.325963 -0.36327,-0.698251 -0.4168,-1.090384 z m 6.11769,0.02273 c 0.11296,0.328986 0.18162,0.673588 0.18162,1.036852 0,1.954639 -1.76697,3.54299 -3.94715,3.54299 -2.17715,0 -3.94353,-1.588351 -3.94353,-3.54299 0,-0.191168 0.0182,-0.37588 0.05,-0.557524 -0.62308,0.263431 -1.16197,0.567139 -1.66355,0.89251 -0.17207,0.310347 -0.25681,0.635718 -0.22854,0.961681 0.0691,0.789675 0.76443,1.447033 1.82594,1.895083 l -0.20685,-0.05342 c -1.83555,-0.520244 -3.2922,0.401135 -4.88657,-0.397542 0.36985,0.291093 0.78965,0.576162 2.00152,0.579777 0.41379,0 1.73211,-0.06547 1.97628,0.150251 0.24118,0.209806 -0.82094,1.212471 -0.82094,1.212471 0,0 1.79826,-1.522204 1.97028,-1.002574 0.10936,0.322372 -0.51364,1.184217 -0.51364,1.184217 0,0 0.62669,-0.848616 1.09341,-1.03085 0.31935,-0.125021 0.58878,-0.109559 0.82093,0.212989 0.15047,0.209807 -0.73012,1.243749 -0.73012,1.243749 0,0 1.1842,-1.152939 1.39409,-1.093384 0.21299,0.05955 0,1.093384 0,1.093384 0,0 0.43843,-1.046489 0.67059,-1.124662 0.31937,-0.106384 -0.73012,2.430945 -0.73012,2.430945 0,0 1.28103,-2.346135 1.5192,-2.399667 0.41017,-0.0907 0.68261,1.638269 0.68261,1.638269 0,0 -0.20026,-1.513179 0.0159,-1.610014 1.35922,-0.614055 0.57616,2.612588 0.57616,2.612588 0,0 0.88951,-2.189791 0.34462,-2.675121 1.44102,0.955657 1.26539,2.675121 1.26539,2.675121 0,0 0.37588,-0.817339 -0.68622,-2.83151 0.57616,-0.02818 1.44401,1.497564 1.44401,1.497564 0,0 -0.94302,-1.669569 -0.30371,-1.700825 1.26538,-0.05955 1.39408,2.218046 1.39408,2.218046 0,0 0.38191,-0.31937 -0.63568,-2.550032 0.64833,-0.416796 2.21445,2.061066 2.21445,2.061066 0,0 -1.44404,-2.418329 -1.21247,-2.58131 0.23154,-0.160026 1.08074,0.770421 1.08074,0.770421 0,0 -0.64533,-0.889509 -0.47632,-0.980319 0.17207,-0.09092 1.89508,1.769994 1.89508,1.769994 0,0 -1.51918,-1.819912 -1.25637,-2.045449 0.26343,-0.222536 1.37487,0.629695 1.37487,0.629695 0,0 -1.71046,-1.121661 -1.37487,-1.296667 0.46369,-0.241176 1.79164,0.576163 1.79164,0.576163 0,0 -0.79868,-0.65795 -0.66698,-0.817339 0.13162,-0.162982 1.70083,1.03085 1.70083,1.03085 0,0 -1.38748,-1.093406 -1.45965,-1.365837 -0.0691,-0.272454 1.09339,0.09092 1.09339,0.09092 0,0 -1.28405,-0.595416 -1.30328,-0.767422 -0.0227,-0.172073 0.8486,0.191167 0.8486,0.191167 0,0 -1.19324,-0.980319 -1.48791,-0.181619 -0.0655,0.128656 -0.15049,0.241175 -0.22549,0.360263 0.0723,-0.215945 0.10638,-0.435435 0.0878,-0.65795 -0.009,-0.07524 -0.0227,-0.150251 -0.0439,-0.222535 -0.5449,-0.294686 -1.36284,-0.748783 -2.51216,-1.071131 z m -4.67368,0.363264 c -0.0878,0.134795 -0.25678,0.188212 -0.40715,0.131613 -0.0439,0.05955 -0.0811,0.122069 -0.11915,0.184575 l 1.02424,0.37588 c 0.009,-0.0091 0.0159,-0.02273 0.0252,-0.03432 z m -0.52984,0.316347 c -0.0753,0.12502 -0.14433,0.253792 -0.19434,0.39452 0.0968,0.10047 0.20981,0.188212 0.31635,0.272454 l 0.73914,-0.02273 0.002,-0.0022 z m 3.35835,0.435436 -0.48535,0.369878 0.0439,0.0022 c 0.16004,-0.106384 0.30674,-0.23156 0.44146,-0.372879 z m -3.63682,0.231538 c 0,0.0091 -0.002,0.01819 -0.006,0.02818 -0.0565,0.253792 -0.0691,0.513607 -0.0379,0.770422 0.18822,0.03797 0.33199,0.188213 0.36027,0.378881 l 0.75178,-0.482329 c -0.0691,-0.02523 -0.13775,-0.04683 -0.20026,-0.07524 l -0.84259,-0.06252 0.51061,-0.112968 c -0.19731,-0.12207 -0.37588,-0.272455 -0.53587,-0.44505 z m 0.63572,0.168891 c 0.11295,0.0691 0.22549,0.128658 0.34462,0.18162 l 0.0939,-0.02273 c 0,-0.01364 0.002,-0.02818 0.002,-0.04387 z m 2.50314,0.548499 0.73613,0.720504 -0.96167,-0.372879 0.56413,0.864847 -0.86125,-0.666974 -0.009,0.0022 0.27907,1.027237 -0.47933,-0.911763 -0.0753,1.065129 -0.326,-1.062128 -0.37588,1.011598 0.0909,-1.090385 -0.0136,-0.0068 -0.65136,0.923787 0.23817,-0.88951 c -0.27906,0.266431 -0.49497,0.591802 -0.63571,0.955681 0.0753,0.08115 0.15639,0.156388 0.24117,0.231537 1.33458,0.347625 2.7407,-0.197305 3.48948,-1.356199 -0.30373,-0.209808 -0.64533,-0.357241 -1.00859,-0.432435 z m -1.95164,0.178666 -0.86485,0.310346 c 0,0.01591 0.006,0.02818 0.006,0.04092 0,0.128658 -0.0537,0.250791 -0.14729,0.3386 0.0811,0.175712 0.18162,0.338601 0.3007,0.491968 0.0655,-0.178666 0.15344,-0.347626 0.25682,-0.507607 l -0.23816,0.191169 z m 2.91329,2.236707 c -0.15025,0.03797 -0.29768,0.0782 -0.45104,0.109559 0.15342,-0.03137 0.3007,-0.07229 0.45104,-0.109559 z m -0.87386,0.18753 c -0.0909,0.01591 -0.18163,0.03797 -0.27244,0.05001 -0.16298,0.02523 -0.31335,0.03432 -0.46971,0.05001 0.25379,-0.02523 0.501,-0.05955 0.74215,-0.10047 z m -1.08437,0.137751 c -0.0878,0.0068 -0.17207,0.0022 -0.25981,0.0091 0.0909,-0.0068 0.17208,-0.0022 0.25981,-0.0091 z"
       id="path1-9"
       style="fill:#2a49d0;fill-opacity:1;stroke-width:0.264582" /><path
       style="fill:none;stroke:#707070;stroke-width:0.265;stroke-linecap:butt;stroke-linejoin:miter;stroke-dasharray:none;stroke-opacity:1;marker-end:url(#ArrowTriangleStylized)"
       d="M 24.972397,48.22914 H 52.422976"
       id="path3" /><path
       style="fill:none;stroke:#707070;stroke-width:0.265;stroke-linecap:butt;stroke-linejoin:miter;stroke-dasharray:none;stroke-opacity:1;marker-end:url(#ArrowTriangleStylized)"
       d="M 60.248441,42.12901 V 31.072528"
       id="path4" /><path
       style="fill:none;stroke:#707070;stroke-width:0.265;stroke-linecap:butt;stroke-linejoin:miter;stroke-dasharray:none;stroke-opacity:1;marker-end:url(#ArrowTriangleStylized)"
       d="m 66.910781,48.22914 h 9.722082"
       id="path5" /><text
       xml:space="preserve"
       style="font-size:2.11667px;line-height:1.25;font-family:Arial;-inkscape-font-specification:'Arial, Normal';text-align:center;text-anchor:middle;fill:#707070;fill-opacity:1;stroke-width:0.264583"
       x="87.787254"
       y="57.188702"
       id="text5"><tspan
         sodipodi:role="line"
         id="tspan5"
         style="fill:#707070;fill-opacity:1;stroke-width:0.264583"
         x="87.787254"
         y="57.188702">Apache Cassandra</tspan></text><text
       xml:space="preserve"
       style="font-size:2.11667px;line-height:1.25;font-family:Arial;-inkscape-font-specification:'Arial, Normal';fill:#707070;fill-opacity:1;stroke-width:0.264583"
       x="54.643608"
       y="56.616817"
       id="text6"><tspan
         sodipodi:role="line"
         id="tspan6"
         style="fill:#707070;fill-opacity:1;stroke-width:0.264583"
         x="54.643608"
         y="56.616817">DemoTodos</tspan><tspan
         sodipodi:role="line"
         style="fill:#707070;fill-opacity:1;stroke-width:0.264583"
         x="54.643608"
         y="59.262653"
         id="tspan7">Spring Boot</tspan><tspan
         sodipodi:role="line"
         style="fill:#707070;fill-opacity:1;stroke-width:0.264583"
         x="54.643608"
         y="61.908493"
         id="tspan8">Application</tspan></text><text
       xml:space="preserve"
       style="font-size:2.11667px;line-height:1.25;font-family:Arial;-inkscape-font-specification:'Arial, Normal';fill:#707070;fill-opacity:1;stroke-width:0.264583"
       x="67.10141"
       y="23.673279"
       id="text9"><tspan
         sodipodi:role="line"
         id="tspan9"
         style="fill:#707070;fill-opacity:1;stroke-width:0.264583"
         x="67.10141"
         y="23.673279">KeyCloak</tspan><tspan
         sodipodi:role="line"
         style="fill:#707070;fill-opacity:1;stroke-width:0.264583"
         x="67.10141"
         y="26.319117"
         id="tspan10">IAM</tspan><tspan
         sodipodi:role="line"
         style="fill:#707070;fill-opacity:1;stroke-width:0.264583"
         x="67.10141"
         y="28.964954"
         id="tspan11">Service</tspan></text><text
       xml:space="preserve"
       style="font-size:2.11667px;line-height:1.25;font-family:Arial;-inkscape-font-specification:'Arial, Normal';fill:#707070;fill-opacity:1;stroke-width:0.264583"
       x="13.062134"
       y="59.09499"
       id="text12"><tspan
         sodipodi:role="line"
         id="tspan12"
         style="fill:#707070;fill-opacity:1;stroke-width:0.264583"
         x="13.062134"
         y="59.09499">Client</tspan></text><text
       xml:space="preserve"
       style="font-style:normal;font-variant:normal;font-weight:normal;font-stretch:normal;font-size:4.93889px;line-height:1.25;font-family:Arial;-inkscape-font-specification:'Arial, Normal';font-variant-ligatures:normal;font-variant-caps:normal;font-variant-numeric:normal;font-variant-east-asian:normal;fill:#707070;fill-opacity:1;stroke-width:0.264583"
       x="38.873478"
       y="7.7469687"
       id="text13"><tspan
         sodipodi:role="line"
         id="tspan13"
         style="font-style:normal;font-variant:normal;font-weight:normal;font-stretch:normal;font-size:4.93889px;font-family:Arial;-inkscape-font-specification:'Arial, Normal';font-variant-ligatures:normal;font-variant-caps:normal;font-variant-numeric:normal;font-variant-east-asian:normal;fill:#707070;fill-opacity:1;stroke-width:0.264583"
         x="38.873478"
         y="7.7469687">Demo Todos Backend</tspan></text><path
       style="fill:none;stroke:#707070;stroke-width:0.264583px;stroke-linecap:butt;stroke-linejoin:miter;stroke-opacity:1;marker-end:url(#marker14)"
       d="M 16.849383,42.190855 V 26.959012 h 37.068644"
       id="path13" /></g></svg>
